<svg id="Layer_1" data-name="Layer 1" xmlns="http://www.w3.org/2000/svg" viewBox="0 0 63.75 51.74"><defs><style>.cls-1{fill:#ffed00;}</style></defs><path class="cls-1" d="M15.5,12C1.1,17.6.5,17.9.2,20.8c-.3,2.7.1,3.1,4.7,4.8C8.4,26.8,10,28,10,29.1a3.17,3.17,0,0,0,1,2.4c.6.3,1-.1,1-.9,0-2.2.9-2.1,11.1,1.9,6.6,2.5,9.5,3.2,11.2,2.6,1.2-.5,4.6-1.8,7.5-3L47,30V45.1l-3.7,1.6c-2.2.9-6.9,1.6-11.3,1.7-6.5.1-8.3-.3-13.5-2.9-5.8-2.9-6-3.1-6.3-7.3-.2-2.3-.8-4.2-1.3-4.2s-.9,2.1-.7,4.7l.3,4.8,6.8,3.4c6.1,3.1,7.7,3.5,14.5,3.4,4.6,0,9.2-.7,11.5-1.6,3.4-1.5,3.7-1.5,3.7.1a7.72,7.72,0,0,1-1.5,3.6c-1.9,2.5-.2,5.8,2.8,5.4,1.6-.2,2.3-1.1,2.5-3.1.2-1.5-.1-2.7-.7-2.7S49,50.7,49,49.1a5,5,0,0,1,2.5-4.5c2.3-1.5,2.5-2.2,2.5-9.4V27.4l5.1-1.8c4.6-1.7,5-2.1,4.7-4.8s-1-3.2-8.8-6.2c-11.4-4.5-13-4.9-13-3.8,0,.5,4,2.5,9,4.3,9.9,3.7,9.9,4.1.5,6.9-3.7,1.1-4.5.9-11.7-2.3-4.3-2-8-3.2-8.3-2.8s2.7,2.3,6.7,4.1l7.1,3.3-5.8,2.3A37.87,37.87,0,0,1,32.2,29C30.8,29,8,20.6,5.3,19.1c-.7-.3,5.1-3,12.8-6C30.7,8.3,32.4,7.9,35,9c1.6.7,3.5,1,4.2.7,1.3-.4-5.6-3.8-7.6-3.6C31,6.1,23.8,8.8,15.5,12Zm5.8,15.5c5.3,2,9.7,4.2,9.7,4.7s-.6.8-1.2.6C16.3,28.1,2,22.2,2,21.3s1.3-.8,4.8.6C9.4,22.9,15.9,25.4,21.3,27.5ZM62,21.3c0,.7-2.4,2.1-5.2,3.1s-5.9,2.1-6.7,2.4-1.2,0-.9-.8,8.4-4.8,12.6-5.9C61.9,20,62,20.6,62,21.3ZM46.8,27.1c-.2.7-2.4,2-4.8,2.9-7.1,2.8-9,3.2-9,2.2,0-.6,2.8-2.1,6.3-3.5C46.6,25.8,47.3,25.6,46.8,27.1ZM52,35.4c0,4.4-.5,6.7-1.5,7.6-1.3,1.1-1.5.3-1.5-6.4,0-6.1.3-7.6,1.5-7.6S52,30.4,52,35.4ZM49.5,53.9c.7,1.2-1.2,2.4-2.5,1.6-1.1-.7-.4-2.5,1-2.5A2.2,2.2,0,0,1,49.5,53.9Z" transform="translate(-0.12 -6.09)"/></svg>